<?xml version="1.0" standalone="no"?>
<!DOCTYPE svg PUBLIC "-//W3C//DTD SVG 20010904//EN"
 "http://www.w3.org/TR/2001/REC-SVG-20010904/DTD/svg10.dtd">
<svg version="1.0" xmlns="http://www.w3.org/2000/svg"
 width="500.000000pt" height="500.000000pt" viewBox="0 0 500.000000 500.000000"
 preserveAspectRatio="xMidYMid meet">

<g transform="translate(0.000000,500.000000) scale(0.100000,-0.100000)"
fill="#000000" stroke="none">
<path d="M0 2500 l0 -2500 2500 0 2500 0 0 2500 0 2500 -2500 0 -2500 0 0
-2500z m1871 615 l164 -335 155 333 155 332 88 3 87 3 0 -346 0 -345 -85 0
-85 0 -1 143 0 142 -116 -230 c-63 -126 -120 -233 -127 -237 -6 -4 -38 -8 -71
-8 -33 0 -65 4 -71 8 -7 4 -65 110 -130 236 l-119 229 -5 -249 -5 -249 -87 -3
-88 -3 0 456 0 455 88 0 89 0 164 -335z m1424 303 c61 -32 88 -59 114 -118 24
-52 28 -150 9 -212 -14 -48 -76 -121 -118 -138 -37 -15 -41 -1 60 -219 44 -95
80 -177 80 -182 0 -6 -37 -9 -92 -7 l-93 3 -84 183 -85 182 -48 0 -48 0 0
-185 0 -185 -85 0 -85 0 0 270 0 270 180 0 c210 0 232 6 251 69 14 46 0 83
-44 115 -26 19 -45 21 -208 25 l-179 3 0 80 0 80 213 -4 c207 -3 213 -4 262
-30z m305 -1063 c0 -13 -128 -15 -1095 -15 -967 0 -1095 2 -1095 15 0 13 128
15 1095 15 967 0 1095 -2 1095 -15z"/>
</g>
</svg>
